<svg width="70" height="70" viewBox="0 0 70 70" fill="none" xmlns="http://www.w3.org/2000/svg">
<g clip-path="url(#clip0_2306_4)">
<path d="M51.0416 5.58984C47.7573 5.64093 44.5446 6.55775 41.728 8.24772C38.9114 9.93769 36.5906 12.341 35 15.2148C33.4093 12.341 31.0885 9.93769 28.2719 8.24772C25.4553 6.55775 22.2426 5.64093 18.9583 5.58984C13.7227 5.81732 8.78994 8.10767 5.23766 11.9605C1.68538 15.8134 -0.197646 20.9155 -4.02703e-05 26.1523C-4.02703e-05 39.4144 13.9591 53.8986 25.6666 63.719C28.2806 65.9156 31.5856 67.1199 35 67.1199C38.4143 67.1199 41.7193 65.9156 44.3333 63.719C56.0408 53.8986 70 39.4144 70 26.1523C70.1976 20.9155 68.3145 15.8134 64.7623 11.9605C61.21 8.10767 56.2772 5.81732 51.0416 5.58984ZM40.5854 59.2565C39.022 60.573 37.0438 61.295 35 61.295C32.9561 61.295 30.9779 60.573 29.4145 59.2565C14.4287 46.6828 5.83329 34.6194 5.83329 26.1523C5.63391 22.4619 6.90186 18.8424 9.3606 16.0831C11.8193 13.3239 15.2694 11.6488 18.9583 11.4232C22.6472 11.6488 26.0972 13.3239 28.556 16.0831C31.0147 18.8424 32.2827 22.4619 32.0833 26.1523C32.0833 26.9259 32.3906 27.6678 32.9376 28.2147C33.4845 28.7617 34.2264 29.069 35 29.069C35.7735 29.069 36.5154 28.7617 37.0624 28.2147C37.6093 27.6678 37.9166 26.9259 37.9166 26.1523C37.7172 22.4619 38.9852 18.8424 41.4439 16.0831C43.9027 13.3239 47.3527 11.6488 51.0416 11.4232C54.7305 11.6488 58.1806 13.3239 60.6393 16.0831C63.0981 18.8424 64.366 22.4619 64.1666 26.1523C64.1666 34.6194 55.5712 46.6828 40.5854 59.2448V59.2565Z" fill="#F00000"/>
</g>
<defs>
<clipPath id="clip0_2306_4">
<rect width="70" height="70" fill="white"/>
</clipPath>
</defs>
</svg>
